<?xml version="1.0" encoding="UTF-8" standalone="no" ?>
<!DOCTYPE svg PUBLIC "-//W3C//DTD SVG 1.1//EN" "http://www.w3.org/Graphics/SVG/1.1/DTD/svg11.dtd">
<svg xmlns="http://www.w3.org/2000/svg" xmlns:xlink="http://www.w3.org/1999/xlink" version="1.1" width="1280" height="1024" viewBox="0 0 1280 1024" xml:space="preserve">
<desc>Created with Fabric.js 5.3.0</desc>
<defs>
</defs>
<g transform="matrix(1 0 0 1 640 512)" id="background-logo"  >
<rect style="stroke: none; stroke-width: 0; stroke-dasharray: none; stroke-linecap: butt; stroke-dashoffset: 0; stroke-linejoin: miter; stroke-miterlimit: 4; fill: rgb(255,255,255); fill-opacity: 0; fill-rule: nonzero; opacity: 1;"  paint-order="stroke"  x="-640" y="-512" rx="0" ry="0" width="1280" height="1024" />
</g>
<g transform="matrix(1.9282749400887949 0 0 1.9282749400887949 639.1161851756531 409.1196701651567)" id="logo-logo"  >
<g style=""  paint-order="stroke"   >
		<g transform="matrix(0.8717738308891408 0 0 0.8717738308891408 0 0)"  >
<g style=""  paint-order="stroke"   >
		<g transform="matrix(1 0 0 1 0 0)"  >
<linearGradient id="SVGID_98_540139" gradientUnits="userSpaceOnUse" gradientTransform="matrix(1 0 0 1 0 -3.8160918336416e-7)"  x1="0" y1="0" x2="0" y2="248">
<stop offset="0%" style="stop-color:rgb(23,234,217);stop-opacity: 1"/>
<stop offset="100%" style="stop-color:rgb(96,120,234);stop-opacity: 1"/>
</linearGradient>
<path style="stroke: none; stroke-width: 0; stroke-dasharray: none; stroke-linecap: butt; stroke-dashoffset: 0; stroke-linejoin: miter; stroke-miterlimit: 4; fill: url(#SVGID_98_540139); fill-rule: nonzero; opacity: 1;"  paint-order="stroke"  transform=" translate(-123.3378905, -123.91047180919541)" d="M 227.460388 119.186361 L 228.50384499999998 117.455343 L 227.86901799999998 115.536398 L 229.600036 116.57985500000001 L 231.518981 115.94502800000001 L 230.475524 117.67604600000001 L 231.110351 119.59499100000001 L 229.379333 118.551534 L 227.460388 119.186361 Z M 5.765747 120.401693 L 7.691223 122.022054 L 7.284241 119.538656 L 8.904602 117.613119 L 6.421204 118.020101 L 4.495667 116.39974 L 4.902649 118.88313799999999 L 3.2822880000000003 120.808675 L 5.765747 120.401693 Z M 229.381653 172.562703 L 227.706482 172.977864 L 229.248413 173.75313300000002 L 229.663513 175.428365 L 230.438843 173.886434 L 232.114014 173.471273 L 230.572083 172.696004 L 230.156983 171.020772 L 229.381653 172.562703 Z M 192.405762 54.883382 L 193.892762 54.596517 L 192.57721 53.846334 L 192.290345 52.359334 L 191.540162 53.674885999999994 L 190.05316200000001 53.96175099999999 L 191.368714 54.71193399999999 L 191.65557900000002 56.198933999999994 L 192.405762 54.883382 Z M 218.870422 51.7618 L 217.500854 52.126668 L 218.778015 52.741170000000004 L 219.142883 54.110677 L 219.757385 52.833516 L 221.126892 52.468648 L 219.849731 51.854146 L 219.484863 50.484639 L 218.870422 51.7618 Z M 78.532104 62.244954 L 79.902282 62.463948 L 79.004699 61.405781000000005 L 79.223754 60.035603 L 78.165526 60.933186 L 76.795348 60.714131 L 77.692931 61.772298 L 77.473937 63.142537 L 78.532104 62.244954 Z M 220.596252 150.910909 L 219.339477 150.322713 L 219.910644 151.5873 L 219.32244799999998 152.844075 L 220.587035 152.272908 L 221.84374899999997 152.861104 L 221.272643 151.596517 L 221.860839 150.33980300000002 L 220.596252 150.910909 Z M 177.476135 25.775655 L 179.904602 26.663472 L 178.638977 24.408711 L 179.52679400000002 21.980244 L 177.27203300000002 23.245869 L 174.843566 22.358052 L 176.109191 24.612813 L 175.221374 27.04128 L 177.476135 25.775655 Z M 121.983521 7.686422 L 119.200013 8.024191 L 121.532899 9.579733000000001 L 121.870668 12.363302000000001 L 123.42621 10.030355 L 126.209779 9.692586 L 123.876832 8.137044 L 123.539063 5.3534749999999995 L 121.983521 7.686421999999999 Z M 51.118591 36.331197 L 49.580017000000005 36.85848 L 51.091247 37.459737 L 51.618591 38.998310999999994 L 52.219787000000004 37.487080999999996 L 53.758361 36.959737 L 52.247131 36.358540999999995 L 51.719787000000004 34.819967 L 51.118591 36.331196999999996 Z M 104.402832 27.527669 L 105.788574 27.45699 L 104.690613 26.608601 L 104.619995 25.222798 L 103.771545 26.320759000000002 L 102.38574200000001 26.391438 L 103.483703 27.239888 L 103.554382 28.62563 L 104.402832 27.527669 Z M 236.776733 87.760762 L 239.08728000000002 88.842183 L 238.03723100000002 86.517232 L 239.11865200000003 84.20668500000001 L 236.79370100000003 85.25673400000001 L 234.483154 84.175313 L 235.53320300000001 86.500264 L 234.451782 88.810811 L 236.776733 87.760762 Z M 22.348145 95.590291 L 22.186401999999998 96.96840399999999 L 21.034912999999996 97.742696 L 22.413086999999997 97.904439 L 23.187378999999996 99.055928 L 23.349121999999998 97.677815 L 24.500549999999997 96.90352299999999 L 23.122436999999998 96.74177999999999 L 22.348145 95.590291 Z M 207.566406 72.336019 L 208.907226 71.97877999999999 L 207.65686 71.37715599999999 L 207.299621 70.03633599999999 L 206.69799700000002 71.286763 L 205.357177 71.643941 L 206.60754300000002 72.245565 L 206.964782 73.58638499999999 L 207.566406 72.336019 Z M 47.482788 96.716085 L 46.829285 96.06068900000001 L 46.898804 96.983602 L 46.243407999999995 97.637105 L 47.166320999999996 97.567586 L 47.819824 98.222982 L 47.750366 97.30006900000001 L 48.4057 96.646566 L 47.482787 96.716085 Z M 199.683655 33.026754 L 198.778076 33.217855 L 199.589905 33.662252 L 199.78106699999998 34.567831000000005 L 200.225464 33.75594100000001 L 201.130982 33.56477900000001 L 200.319153 33.12044300000001 L 200.127991 32.214864000000006 L 199.68365500000002 33.026754000000004 Z M 129.080811 33.047567 L 129.906067 32.628561 L 129.00683600000002 32.409506 L 128.58783000000003 31.58425 L 128.36877500000003 32.483481 L 127.54351900000003 32.902487 L 128.44268900000003 33.121542 L 128.86169500000003 33.946798 L 129.08081100000004 33.047567 Z M 150.995483 219.427449 C 150.995483 218.169514 149.989441 217.163167 148.731933 217.163167 L 148.153503 217.163167 L 134.861633 236.006551 L 148.73193300000003 236.006551 C 149.98944000000003 236.006551 150.99548300000004 235.000142 150.99548300000004 233.742269 L 150.99548300000004 219.42745 Z M 176.753845 105.094686 C 176.35479700000002 119.719015 171.674743 132.165304 163.218445 141.08736199999998 C 154.134705 150.671407 140.905091 155.737508 124.960327 155.737508 C 109.72955300000001 155.737508 96.754822 150.687459 87.437683 141.134053 C 78.622253 132.095357 73.55419900000001 119.29646799999999 73.167297 105.094685 C 72.782959 90.99373299999999 77.95611500000001 80.320027 88.54357900000001 73.369587 C 97.29638700000001 67.623066 109.548523 64.70930899999999 124.960327 64.70930899999999 C 140.37213100000002 64.70930899999999 152.624267 67.623066 161.376465 73.369587 C 171.963318 80.320026 177.137024 90.99373299999999 176.75384499999998 105.094685 Z M 159.652283 75.998372 C 151.42077700000002 70.59462400000001 139.74829100000002 67.85396300000001 124.960327 67.85396300000001 C 110.17236299999999 67.85396300000001 98.500488 70.59462500000001 90.26898200000001 75.998372 C 80.65344200000001 82.311299 75.95745900000001 92.071004 76.309876 105.008748 C 76.67523200000001 118.418111 81.42645300000001 130.467732 89.688111 138.93764199999998 C 98.39972 147.870747 110.596619 152.59273199999998 124.960328 152.59273199999998 C 140.020936 152.59273199999998 152.462159 147.86580299999997 160.936829 138.92293199999997 C 168.85150199999998 130.57338399999998 173.233094 118.84566099999998 173.610108 105.00874699999997 C 173.962586 92.07100299999998 169.26532 82.31001699999997 159.652283 75.99837099999996 Z M 156.557434 207.492086 C 135.562927 205.320882 114.35772700000001 205.337911 93.362671 207.492513 C 114.357788 209.647115 135.56298800000002 209.664144 156.557434 207.492086 Z M 124.537537 217.163045 L 101.047303 217.163045 C 99.789857 217.163045 98.783753 218.169454 98.783753 219.42732700000002 L 98.783753 233.74226800000002 C 98.783753 235.000142 99.789857 236.00642800000003 101.047303 236.00642800000003 L 111.245667 236.00642800000003 L 124.537537 217.163044 Z M 142.029419 217.163045 L 136.47131399999998 217.163045 L 123.17944399999998 236.00642900000003 L 129.064576 236.00642900000003 L 142.02942 217.163045 Z M 171.052734 105.61263 C 170.386169 133.424825 152.730774 150.70833299999998 124.965026 150.70833299999998 C 98.02929599999999 150.70833299999998 79.50628599999999 132.58192899999997 78.864867 105.61262999999998 C 78.63861 95.92677799999998 81.41754 88.05232699999998 87.13928100000001 82.20302299999997 C 94.84777700000001 74.29091399999997 107.57372900000001 70.29085299999997 124.96502600000001 70.29085299999997 C 142.356444 70.29085299999997 155.069762 74.29091399999997 162.778319 82.19044999999997 C 168.49993800000001 88.05232699999996 171.279051 95.92677799999997 171.05273300000002 105.61262999999997 Z M 97.362854 86.29128 C 97.362854 86.29128 129.554993 80.127584 143.991089 92.46755 C 160.954895 106.971151 155.082337 130.179403 155.082337 130.179403 C 163.507691 117.31111700000001 166.374756 95.360738 147.09729099999998 83.976766 L 147.09716899999998 83.976766 C 131.47888299999997 74.768941 103.13476699999998 80.819478 97.36285499999998 86.29128 Z M 104.480286 133.085164 C 105.574341 133.814717 106.73120200000001 134.431111 107.863037 135.11031 C 112.54089300000001 137.525532 117.784729 138.632466 122.915344 138.707905 C 128.07122800000002 138.78340500000002 133.176697 137.802265 137.791687 135.789631 C 132.786804 136.28017100000002 127.89514199999999 136.36818300000002 123.11657699999999 135.77711900000003 C 118.363159 135.17323700000003 113.74816899999999 133.87764400000003 109.57318099999999 131.751728 C 105.38568099999999 129.651081 101.70117199999999 126.63209900000001 98.733459 122.94649100000001 C 95.75323399999999 119.24824900000002 93.57781899999999 114.87074600000001 91.842407 110.15364400000001 C 92.03094499999999 115.17262600000001 93.53997799999999 120.25453500000002 96.34417699999999 124.65718400000002 C 97.70239199999999 126.88368500000001 99.47546399999999 128.845966 101.38677999999999 130.64479400000002 C 101.82696599999998 131.14796800000002 102.39294499999998 131.487567 102.908386 131.902668 L 104.480285 133.085163 Z M 74.574646 188.47231 L 74.851563 191.389852 C 75.109498 195.690511 70.123658 198.21858699999999 65.067872 198.52199299999998 C 64.70990099999999 198.54286699999997 64.358643 198.55397499999998 64.01544299999999 198.55397499999998 C 59.18066499999999 198.55397499999998 55.87908999999999 196.45583 55.68133699999999 193.15626999999998 L 55.40814399999999 190.291646 C 55.228272999999994 188.39369699999997 56.62512399999999 186.703389 58.523073 186.521626 L 70.805239 185.355793 C 71.733645 185.26125000000002 72.625185 185.543781 73.336184 186.13216 C 74.047183 186.7206 74.487429 187.552265 74.574648 188.472309 Z M 71.642944 190.848592 L 71.444397 188.769674 C 71.42907699999999 188.60500100000002 71.295227 188.48464 71.133179 188.48464 L 71.101807 188.485861 L 58.821473 189.651571 L 58.821473 189.651693 C 58.646423999999996 189.668783 58.521179999999994 189.818746 58.537782 189.994405 L 58.538392 189.994405 L 58.802186 192.774678 C 62.495484 195.88093999999998 68.88672 195.29073 71.642945 190.848592 Z M 194.440002 190.291646 L 194.164917 193.18574999999998 C 193.948853 196.468099 190.651489 198.55397499999998 185.831543 198.55397499999998 C 185.48889200000002 198.55397499999998 185.13763400000002 198.542928 184.779053 198.52199299999998 C 179.723206 198.21858699999999 174.738648 195.690511 174.991577 191.44508899999997 L 175.274109 188.47231099999996 C 175.361206 187.55226699999997 175.80096400000002 186.72060199999996 176.511963 186.13216199999997 C 177.222962 185.54378299999996 178.11578400000002 185.26369299999996 179.042908 185.35579499999997 L 191.324463 186.52162799999996 C 193.223023 186.70339099999995 194.61926300000002 188.39375899999996 194.44000300000002 190.29164799999995 Z M 191.310974 189.994405 C 191.326965 189.819905 191.20165999999998 189.668782 191.026062 189.651571 L 178.74572799999999 188.485861 L 178.71496599999998 188.48464 C 178.55291799999998 188.48464 178.41906799999998 188.60372 178.403137 188.769674 L 178.20092799999998 190.89449100000002 C 180.98065199999996 195.30971300000002 187.37371899999997 195.87434900000002 191.04949999999997 192.746664 L 191.31097499999996 189.994406 Z M 246.561218 119.955343 C 246.615722 121.460592 246.675781 122.964437 246.675781 124.482931 C 246.675781 192.600607 191.455627 247.820944 123.337951 247.820944 C 55.220275000000015 247.820944 0 192.600606 0 124.48293 C 0 124.225056 0.017883 123.971333 0.019409 123.713765 C 0.965942 149.897237 10.075317 173.99568599999998 24.871216 193.550252 C 25.316284 193.10262 25.765625 192.666219 26.214417 192.227925 C 26.71167 186.533223 27.49115 181.290486 28.53003 176.478413 C 21.824342 165.988057 17.042481000000002 154.817097 14.088441 143.378743 L 13.077148999999999 143.785664 L 12.632446999999999 145.100056 L 12.114441999999999 143.812764 L 10.800049999999999 143.36806199999998 L 12.087342 142.850057 L 12.532105 141.535665 L 13.050049 142.822957 L 14.029236 143.154317 C 7.6555789999999995 118.264974 9.941894999999999 92.12727799999999 19.96698 68.99641899999999 L 19.390808 68.29262299999999 L 20.213745 68.43892399999999 C 28.962646 48.542622999999985 43.447693 30.904926999999986 63.092224 18.260212999999986 C 65.869263 16.472675999999986 68.696838 14.828205999999986 71.562439 13.309040999999986 L 71.51031499999999 12.616779999999986 L 71.98132299999999 13.089191999999986 C 124.013123 -14.222026 189.210388 2.272237 221.622681 52.627218 C 221.752503 52.828877999999996 221.866211 53.036276 221.994629 53.238485 C 205.297058 29.248433999999996 180.925903 13.514485999999998 154.355591 7.213338999999998 L 154.36132800000001 8.281026999999998 L 153.19940200000002 6.940572999999998 C 152.87164300000003 6.866414999999998 152.54296900000003 6.796651999999998 152.21453900000003 6.725362999999998 L 150.94482500000004 6.732137999999998 L 151.20007400000003 6.510885999999998 C 126.94708300000002 1.4724949999999986 101.06402700000004 4.2412329999999985 77.62829700000003 15.707418999999998 L 79.45581200000004 15.569784999999998 L 76.15258900000003 18.863608 L 76.50280900000003 23.515279999999997 L 73.20898600000002 20.212056999999998 L 68.74054100000002 20.548544 C 67.76629800000002 21.136007 66.79583900000002 21.734396 65.83282600000003 22.354269 C 47.97650300000002 33.847982 34.38629300000002 49.467305999999994 25.490053000000024 67.156881 L 24.959169000000024 70.14302599999999 L 27.187013000000025 72.86440099999999 L 23.724367000000026 72.24873899999999 L 22.716616000000027 73.07368999999998 C 8.691653000000027 105.42982999999998 9.816714000000026 143.673299 28.602541000000027 176.14900699999998 C 29.448732000000028 172.29189 30.458925000000026 168.707112 31.65240700000003 165.43581099999997 L 31.65240700000003 164.10585499999996 L 30.87567400000003 164.05568399999996 L 31.65240700000003 163.47212699999994 L 31.65240700000003 156.42909699999996 C 31.65240700000003 153.06129899999996 32.32525900000003 149.82283499999997 33.52679700000003 146.83375999999996 C 24.59649900000003 116.08687299999995 32.24103000000003 81.54567399999995 56.47998300000003 57.30672099999995 C 56.61407700000003 57.172565999999954 56.75531300000003 57.049945999999956 56.89007800000003 56.91682799999995 C 34.88360800000003 80.57405499999996 27.86371100000003 113.11122499999996 35.80279800000003 142.44496499999997 C 38.32159700000003 138.52778999999998 41.85907200000003 135.30983299999997 46.06695800000003 133.18599299999997 C 45.193667000000026 130.56849999999997 44.44781700000003 127.90040999999997 43.84698700000003 125.18391799999996 L 43.177370000000025 124.48848299999996 L 39.64270200000003 124.69270699999996 L 42.19305600000003 122.23683499999996 L 41.988893000000026 118.70216699999996 L 42.818971000000026 119.56422799999996 C 42.49151700000002 117.32216299999996 42.24163900000003 115.05885699999996 42.10968100000002 112.76906199999996 C 39.689027000000024 70.76442299999997 71.82855300000003 37.36000399999996 113.89532600000003 38.15834399999996 C 114.05462800000002 38.16133499999996 114.21191500000002 38.175311999999956 114.37103400000002 38.179339999999954 C 87.61932500000002 38.63826299999995 65.19775500000003 52.990496999999955 53.64911000000002 74.44099799999995 L 53.71655400000002 74.92561699999995 L 55.07415900000002 75.79701599999994 L 53.47632000000002 76.01924499999994 L 52.60498200000002 77.37684999999995 L 52.50842400000002 76.68269699999995 C 47.25763100000002 87.35097099999994 44.62036200000002 99.63588299999995 45.37738200000002 112.77241899999996 C 45.54034600000002 115.59993399999996 45.86822700000002 118.39064399999995 46.32763800000002 121.14375699999995 L 47.97937100000002 121.04835899999995 L 46.561280000000025 122.41389899999994 C 47.15710500000002 125.65468299999995 47.93383900000003 128.84114499999995 48.91491800000003 131.94960499999993 C 50.549012000000026 131.35841799999994 52.252748000000025 130.90938299999993 54.025392000000025 130.65565999999993 C 57.257265000000025 130.19270799999993 60.49127300000003 129.76790399999993 63.71594400000002 129.36653599999994 C 63.32074100000002 128.04555199999993 62.97705200000002 126.71510799999994 62.668764000000024 125.37892599999994 C 61.749025000000024 124.92280999999994 61.04113900000002 124.08455299999994 60.783205000000024 123.02833999999993 C 60.377382000000026 121.36891599999993 60.04529000000002 119.70766099999993 59.75500700000002 118.04591799999993 L 59.00439700000002 118.04591799999993 C 57.668337000000015 118.04591799999993 56.51214800000002 117.13563999999992 56.192813000000015 115.83229499999993 C 54.282046000000015 108.01961199999994 54.282046000000015 100.15285199999994 56.19165300000002 92.45186299999993 C 56.51398000000002 91.15468299999993 57.668948000000015 90.24928699999994 59.00073500000002 90.24928699999994 L 60.32684600000002 90.24928699999994 C 60.47857900000002 89.55110599999993 60.607486000000016 88.85115499999993 60.78021500000002 88.15486599999994 C 61.17804200000002 86.55543999999995 62.60077200000002 85.43886299999994 64.24139700000002 85.43886299999994 L 65.70618000000002 85.43886299999994 C 68.70148000000002 77.73341899999994 73.06818000000001 70.56038399999994 78.66547000000001 64.38411399999994 C 88.81171000000002 48.51820799999994 106.27136600000001 38.42976799999994 124.93695400000001 38.42976799999994 C 147.545658 38.42976799999994 168.09430300000002 52.92995099999994 176.19244700000002 74.54774899999994 C 179.22021800000002 76.87025899999993 181.16711700000002 80.43111099999994 181.495303 84.50886999999994 C 181.52057200000002 84.82204099999994 181.535281 85.12697299999995 181.55878 85.43874099999995 L 185.67926300000002 85.43874099999995 C 186.15985400000002 85.43874099999995 186.616946 85.54433199999995 187.039859 85.72005199999995 C 185.970828 81.88051299999995 184.591922 78.09804299999995 182.849307 74.42134599999996 C 183.237918 75.15901699999996 183.62890900000002 75.89449099999996 183.99463200000002 76.65401199999995 C 185.477908 79.73469999999995 186.71094100000002 82.89003499999995 187.71722700000004 86.09218299999995 C 188.40417800000003 86.57448299999994 188.92468500000004 87.28975399999995 189.13855300000003 88.15480499999995 C 189.31134400000002 88.85115499999995 189.44025000000002 89.55110599999995 189.59198300000003 90.24928699999995 L 190.85437300000004 90.24928699999995 L 191.05395800000005 89.28480899999995 L 191.64306900000005 90.35109299999995 C 191.93646500000006 90.42702099999995 192.21142800000004 90.54628299999995 192.46264900000006 90.70564599999994 L 193.18481700000007 90.85512099999994 L 192.87695600000006 91.02522599999995 C 193.28174100000007 91.39998199999995 193.58819900000006 91.88551699999995 193.72894600000006 92.45302099999995 C 195.63861400000008 100.15272799999995 195.63733200000007 108.01954899999996 193.72656600000008 115.83229299999995 C 193.40973300000007 117.13563799999994 192.25293300000007 118.04591599999995 190.9155920000001 118.04591599999995 L 190.33478100000008 118.04591599999995 C 189.82208600000007 121.82917999999995 189.02600400000009 125.56898699999995 187.95849900000007 129.23158499999994 C 190.69055500000007 129.59181399999994 193.41730000000007 129.97004899999993 196.11877700000008 130.38166999999993 C 198.7417020000001 130.78157199999993 201.2061180000001 131.57136699999992 203.48456100000007 132.65803699999992 C 204.58423100000007 126.49159399999992 205.00360400000008 120.05598599999992 204.62103600000006 113.41743599999992 C 202.68982300000005 79.90583899999993 181.38263300000006 50.619034999999926 152.19647500000008 36.570938999999925 L 152.24133600000008 37.91090499999992 L 153.83795500000008 39.18977499999992 L 151.79339900000008 39.25825599999992 L 150.51452900000007 40.85493599999992 L 150.44604800000008 38.81037999999992 L 148.84936800000008 37.53150999999992 L 150.89392400000008 37.46302899999992 L 151.76764200000008 36.37226999999992 C 140.7738070000001 31.150284999999922 128.6838410000001 28.070755999999925 116.08880900000008 27.75465499999992 C 117.11444400000008 27.737015999999922 118.13885800000008 27.71559299999992 119.17566200000009 27.735245999999922 C 165.6848170000001 28.61781399999992 205.55755900000008 66.98066799999992 208.23382900000007 113.42115899999992 C 208.65466600000008 120.72352699999992 208.12768900000006 127.78956699999992 206.76495700000007 134.5116739999999 C 211.13702700000007 137.44490199999993 214.50989100000007 141.6534589999999 216.42810400000008 146.59034799999992 C 226.79663400000007 112.33686899999992 218.47613900000007 73.64161799999992 191.39868500000009 46.56410299999992 C 152.37994700000007 7.545364999999919 89.21735000000008 7.409744999999916 50.01562800000008 46.133011999999916 C 50.84985700000008 45.23622199999991 51.67999600000008 44.33699099999991 52.55316500000008 43.463883999999915 C 91.72021800000007 4.296769999999917 155.22247700000008 4.296708999999915 194.3895300000001 43.46376199999992 C 223.0932040000001 72.16743599999992 230.75879300000008 113.94014099999991 217.3914220000001 149.62696999999991 C 217.91705700000009 151.70509499999991 218.2122840000001 153.8751389999999 218.2122840000001 156.11580099999992 L 218.2122840000001 165.6042649999999 C 218.5785560000001 166.5926069999999 218.92602900000009 167.6103689999999 219.2595250000001 168.64967499999992 C 238.4202920000001 136.1267259999999 239.0662270000001 94.29554899999992 217.4791910000001 60.30171399999992 C 218.2030070000001 61.34156999999992 218.9301190000001 62.37788599999992 219.6214640000001 63.45192199999992 C 241.93127800000008 98.11195599999992 240.9880410000001 141.06111399999992 220.76501900000008 173.98170699999991 C 222.04279000000008 179.11421399999992 222.9719890000001 184.7769949999999 223.55377600000008 190.94691699999993 C 237.8985030000001 170.92408999999992 246.39874700000007 146.42836199999994 246.5612220000001 119.95533999999992 Z M 59.703857 93.394063 L 59.197876 93.394063 C 57.471802000000004 100.47707100000001 57.473084 107.709981 59.202148 114.901143 L 59.274902000000004 114.901143 C 58.333679000000004 107.70711200000001 58.480713 100.51381400000001 59.703857000000006 93.394063 Z M 221.132751 194.198385 C 220.401428 193.490194 219.67309500000002 192.772177 218.93292200000002 192.093466 L 213.235778 187.771567 C 212.694823 191.15206 211.653075 196.888999 209.72283900000002 206.750022 C 209.69464100000002 206.894004 209.66424500000002 207.046409 209.63562000000002 207.192161 C 213.76330600000003 203.138389 217.60546900000003 198.795982 221.132751 194.198387 Z M 205.689758 210.906453 C 208.333435 197.806966 210.31121800000003 186.373494 210.66845700000002 183.885457 L 210.63775600000002 183.836263 L 210.74340800000002 183.245443 C 211.027038 181.653402 209.05358900000002 180.187826 207.62298600000003 179.916464 C 206.53247100000002 179.713705 206.44653300000002 180.14736 206.40478500000003 180.356161 C 206.36810300000002 180.58882699999998 203.62469500000003 197.55269399999997 200.13397200000003 215.610617 C 202.03131100000002 214.09517499999998 203.88629100000003 212.529135 205.68975800000004 210.906454 Z M 159.077515 237.229696 L 159.077515 212.485433 C 159.077515 209.368978 158.556824 206.296651 157.530213 203.355855 L 155.777772 198.33406499999998 C 155.389772 197.22475099999997 154.341004 196.479146 153.165772 196.479146 L 96.754212 196.479146 C 95.57959 196.479146 94.529603 197.224751 94.14276199999999 198.33406499999998 L 92.39032099999999 203.355855 C 91.36309899999999 206.299153 90.84240799999999 209.370198 90.84240799999999 212.485433 L 90.84240799999999 238.216573 C 101.167115 241.02138300000001 112.028504 242.52412900000002 123.24273799999999 242.52412900000002 C 135.70739899999998 242.52412900000002 147.736818 240.66859900000003 159.077516 237.22969500000002 Z M 50.32605 218.653035 C 46.556214000000004 199.50032499999998 43.494934 180.58205099999998 43.449585 180.29848199999998 C 43.417603 180.14613799999998 43.328003 179.711202 42.241821 179.91646299999996 C 40.811157 180.18782499999998 38.837097 181.65340099999997 39.121399000000004 183.24544199999997 L 39.226929000000005 183.83626199999998 L 39.19628900000001 183.88545599999998 C 39.585083000000004 186.59315899999999 41.89459200000001 199.90083699999997 44.89276100000001 214.42048999999997 C 46.66369600000001 215.87996299999998 48.474304000000004 217.29255999999998 50.32605000000001 218.65303399999996 Z M 46.643433 180.359395 C 47.236634 183.98592100000002 50.383179 203.02419 54.05304 221.284505 C 55.966370000000005 222.584371 57.917298 223.832662 59.905518 225.025655 L 56.617981 201.041951 C 54.032166000000004 199.72591100000002 52.158447 197.57692400000002 51.859802 194.432637 L 51.153686 186.981038 C 51.065856000000004 186.062215 51.33966 185.16298400000002 51.924255 184.44930000000002 C 52.487365000000004 183.76094600000002 53.276306000000005 183.33467600000003 54.150879 183.221639 L 53.276978 176.90633100000002 C 51.04889 177.92738800000004 48.828248 179.08437100000003 46.643433 180.35939500000003 Z M 57.282227 182.912618 L 70.38183599999999 181.668722 L 69.135132 168.594137 C 68.280396 168.295614 64.891663 168.571981 60.769165 170.457662 C 57.705139 171.857992 56.210022 173.336995 56.051697000000004 174.022481 L 57.282227000000006 182.912618 Z M 76.702576 160.957784 C 110.183106 169.808736 141.811951 170.010885 173.263611 160.965902 C 172.976441 160.476156 172.694702 159.984945 172.370972 159.505026 C 171.537171 158.26796499999998 169.788391 157.59724999999997 168.39953599999998 157.97566799999998 C 140.74176 166.848471 110.62548799999999 166.85097299999998 81.37060499999998 157.964621 C 79.98419099999998 157.609579 78.16052199999999 158.390829 77.37463299999999 159.72249499999998 C 77.13714499999999 160.125205 76.92327799999998 160.54366199999998 76.70257499999998 160.95778599999997 Z M 180.709351 168.638326 L 179.46576 181.668599 L 192.56622399999998 182.912495 L 193.79657099999997 174.02248 C 193.63812399999998 173.336994 192.14233499999997 171.85677 189.07721099999998 170.456379 C 185.01611499999999 168.600239 181.66473499999998 168.301777 180.70935199999997 168.638325 Z M 189.414368 205.689229 C 185.236145 207.04323300000001 181.189759 206.664693 177.278076 204.51820800000002 L 175.817627 219.520588 C 178.635193 223.189594 183.60632299999997 224.479206 187.16687 221.961506 L 187.16687 221.961384 L 189.414368 205.689228 Z M 195.566101 186.683797 C 195.577148 186.565816 195.524353 186.481038 195.491211 186.441732 C 195.454407 186.395101 195.388062 186.338583 195.28363 186.328756 L 175.190612 184.421041 L 175.159911 184.419759 L 174.96581899999998 184.490987 C 174.92651199999997 184.52418999999998 174.859007 184.59663899999998 174.84673899999999 184.71699999999998 L 174.139342 192.16743899999997 C 173.747618 196.301045 178.753112 198.95814899999996 183.901061 199.44704099999998 C 189.056334 199.94087599999997 194.465819 198.26894 194.858825 194.135395 L 195.5661 186.683796 Z M 122.905212 193.334371 L 127.014831 193.334371 L 127.014831 183.591817 L 122.905212 183.591817 L 122.905212 193.334371 Z M 75.032104 170.507894 C 88.88610800000001 174.501607 102.793823 176.92952499999998 116.407775 177.767904 C 116.397582 177.62239599999998 116.364074 177.48348 116.364074 177.33553099999997 C 116.364074 175.82265299999997 116.925475 174.45198599999998 117.82244800000001 173.36879499999998 C 103.352782 172.66884399999998 88.80145200000001 170.17592399999998 74.50500400000001 165.998067 C 74.25012100000001 166.74074299999998 74.01287800000001 167.503682 73.79363900000001 168.290609 C 73.50201300000002 169.33607999999998 73.98828000000002 170.20705199999998 75.032103 170.507894 Z M 122.618469 180.447103 L 127.300903 180.447103 C 129.01654 180.447103 130.41278 179.051595 130.41278 177.335531 C 130.41278 175.619344 129.01654 174.223898 127.300903 174.223898 L 122.618469 174.223898 C 120.903503 174.223898 119.507873 175.61934499999998 119.507873 177.335531 C 119.507873 179.051595 120.903503 180.447103 122.618469 180.447103 Z M 175.060425 170.542318 C 176.16931200000002 170.16896599999998 176.371948 169.170248 176.19146700000002 168.360738 C 176.01562500000003 167.573812 175.80590800000002 166.806661 175.56512400000003 166.055074 C 161.57055600000004 170.515523 146.99414000000002 172.97798699999998 132.19659400000003 173.488485 C 133.03509500000004 174.553182 133.55657900000003 175.878256 133.55657900000003 177.335531 C 133.55657900000003 177.55147300000002 133.51428200000004 177.75588 133.49273600000004 177.966268 C 148.05963100000002 177.39589400000003 162.03936700000003 174.915487 175.06042400000004 170.54231800000002 Z M 75.70813 192.16744 L 75.000794 184.717001 C 74.989747 184.59664 74.921631 184.524191 74.881714 184.49098800000002 L 74.688294 184.41976000000003 L 74.65881399999999 184.42104200000003 L 54.565124999999995 186.32875700000002 C 54.460694 186.33858400000003 54.39373799999999 186.39510200000004 54.356323999999994 186.44173300000003 C 54.324403 186.48104000000004 54.271606999999996 186.56459700000002 54.28265499999999 186.68379800000002 L 54.28326499999999 186.68379800000002 L 54.989990999999996 194.135397 C 55.382934999999996 198.268942 60.800416 199.939657 65.946473 199.44698100000002 C 71.094483 198.95815000000002 76.100526 196.301046 75.708131 192.16744000000003 Z M 74.057739 220.233114 L 72.55877699999999 204.507345 C 68.64923099999999 206.658651 64.60516399999999 207.044943 60.42907699999999 205.698446 L 62.579711999999994 221.38759399999998 C 65.931946 224.44429599999998 70.95867899999999 223.58510399999997 74.057739 220.23311399999997 Z M 66.748474 228.838704 C 70.312378 230.679463 73.97717300000001 232.35109400000002 77.733154 233.843831 L 77.697571 233.329183 C 77.60058599999999 231.922689 76.961304 230.639058 75.898499 229.712789 C 74.835572 228.78780099999997 73.473755 228.330831 72.07074 228.429037 L 67.168946 228.768148 C 67.025147 228.778097 66.889466 228.817586 66.748475 228.838705 Z M 87.69873 237.319722 L 87.69873 212.485555 C 87.69873 209.016439 88.27832 205.596517 89.422241 202.31911200000002 L 91.174621 197.297322 C 92.00170800000001 194.926533 94.24414 193.334492 96.754211 193.334492 L 118.431213 193.334492 L 117.884948 185.088276 C 101.07433999999999 184.998066 86.28594899999999 181.915974 73.033874 176.364521 L 73.511169 181.371662 L 74.360412 181.291035 C 75.276489 181.20009299999998 76.17236299999999 181.47902299999998 76.884033 182.067402 C 77.600586 182.659504 78.043335 183.49477 78.13104200000001 184.41987999999998 L 78.838378 191.870197 C 79.14471300000001 195.098041 77.629699 197.614093 75.22955200000001 199.403339 L 77.03131000000002 218.30397399999998 L 78.66363400000002 225.54079 C 78.66363400000002 225.54079 82.29418800000002 228.818073 83.18304300000001 235.861102 C 84.67626800000001 236.373919 86.18017400000001 236.863238 87.69872900000001 237.31972 Z M 162.221252 236.232137 C 164.104797 235.605062 165.967651 234.93343099999998 167.80956999999998 234.219137 C 168.68603499999998 226.951437 171.316772 225.767172 171.316772 225.767172 L 172.588134 220.248617 L 174.617492 199.402365 C 172.218078 197.61324100000002 170.703674 195.097433 171.010375 191.870138 L 171.71765000000002 184.41976 C 171.80493 183.49477199999998 172.24694700000003 182.659384 172.96411000000003 182.067343 C 173.67639000000003 181.477743 174.58019900000002 181.201254 175.48901200000003 181.290976 L 176.33642400000002 181.371481 L 176.80578400000002 176.449423 C 163.60613800000002 181.94686 148.88372600000002 184.998373 132.15966600000002 185.088156 L 131.61321800000002 193.334372 L 153.165769 193.334372 C 155.67584000000002 193.334372 157.918271 194.926474 158.74474800000002 197.29726300000002 L 160.49718900000002 202.318992 C 161.64165900000003 205.594016 162.22124900000003 209.015159 162.22124900000003 212.485435 L 162.22124900000003 236.232139 Z M 172.31189 232.365438 C 174.994812 231.200399 177.628052 229.943441 180.207825 228.59718800000002 L 177.778015 228.42903600000002 C 176.367004 228.32832800000003 175.012451 228.78774 173.949036 229.71278800000002 C 173.135865 230.421894 172.575928 231.34212100000002 172.31189 232.36543700000001 Z M 190.231567 222.750631 C 192.31964100000002 221.39681 194.36535600000002 219.98348 196.36383 218.509298 C 199.805236 201.073019 202.677673 183.677877 203.219726 180.36025 C 201.030395 179.081014 198.805114 177.92226200000002 196.572204 176.899435 L 195.697509 183.22188400000002 C 197.533202 183.459921 198.871886 185.11507200000003 198.69519 186.981039 L 197.987793 194.432638 C 197.689758 197.576376 195.815979 199.72524099999998 193.230164 201.04122 L 190.231568 222.750632 Z M 207.55658 152.753682 L 207.345337 152.495625 L 207.255737 152.175007 C 206.973327 151.155476 206.008056 150.47859599999998 204.953125 150.568257 C 204.567444 150.60145999999997 204.209778 150.73988799999998 203.898621 150.953328 C 203.8349 151.156331 203.77594 151.361775 203.747864 151.576253 C 203.584473 152.84676100000001 204.03710999999998 153.97884100000002 204.81677299999998 154.758748 C 205.40783699999997 155.337361 205.99877999999998 155.903523 206.476624 156.570149 C 211.59716799999998 163.68159899999998 215.22723399999998 175.92103999999998 217.48040799999998 186.63136699999998 C 218.393677 187.397114 219.30303999999998 188.18025599999999 220.20642099999998 188.991413 C 218.43633999999997 173.00008 214.18774399999998 160.82002599999998 207.55657999999997 152.753681 Z M 177.379883 131.113057 C 176.546997 133.844624 175.588928 136.503072 174.53057900000002 139.106221 C 176.72876000000002 139.411946 178.92700200000002 139.724446 181.12530600000002 140.07912100000001 C 190.66980100000004 141.613606 198.227357 150.368672 198.89392200000003 160.82185800000002 L 199.80786200000003 174.958638 C 201.43377800000002 175.75923600000002 203.04968300000002 176.62502 204.64752300000004 177.553426 C 205.54345800000004 176.843282 206.78546200000002 176.556661 208.20752100000004 176.826986 C 209.25811900000005 177.0259 210.28643900000003 177.478597 211.17700300000004 178.112569 C 209.38446100000004 170.503804 206.85339500000003 163.326741 202.11401500000005 157.162496 C 200.79876800000005 156.2571 199.94531400000005 154.80263300000001 199.81140300000004 153.214315 C 199.69104200000004 151.790609 200.13189900000003 150.404867 201.05420100000003 149.312826 C 201.97522200000003 148.222006 203.26715300000004 147.55495200000001 204.69043100000005 147.434591 C 207.12927400000004 147.231893 209.38025000000005 148.71089700000002 210.17968900000005 150.994528 C 211.98047000000005 153.219748 213.60815600000006 155.729941 215.06854400000006 158.508017 L 215.06854400000006 156.115805 C 215.06854400000006 144.72102999999998 206.89966000000007 135.20571 195.64471600000007 133.489645 C 189.6173110000001 132.571615 183.48077600000008 131.781454 177.37988400000006 131.113058 Z M 185.904358 128.969198 C 186.277527 127.82588700000001 186.62561 126.67507 186.944885 125.515585 C 186.547058 125.667929 186.119812 125.756674 185.673095 125.756674 L 178.832763 125.756674 C 178.645141 126.52400800000001 178.458679 127.292013 178.254516 128.049399 C 178.60180599999998 128.087851 178.949584 128.13551999999999 179.297058 128.174765 C 179.317322 128.13082 179.340454 128.088827 179.360657 128.044821 C 179.342835 128.088522 179.323303 128.13204000000002 179.30548100000001 128.17574100000002 C 181.5047 128.42409300000003 183.70562700000002 128.689657 185.904358 128.969198 Z M 190.722717 93.394063 L 190.21520999999998 93.394063 C 191.43859899999998 100.51338700000001 191.585571 107.707051 190.64434799999998 114.901143 L 190.71783399999998 114.901143 C 192.44689899999997 107.709981 192.44818099999998 100.47707100000001 190.722717 93.394063 Z M 181.271118 111.780599 C 182.466553 117.748311 185.050232 118.612691 187.773681 112.206869 C 188.53478900000002 104.395285 187.993713 96.594625 186.088195 88.91152 C 186.040221 88.71871 185.87200800000002 88.583517 185.679259 88.583517 L 181.773619 88.583517 C 182.241576 96.778036 182.070067 104.489157 181.271117 111.78059999999999 Z M 172.691589 76.018087 C 156.04058799999999 67.685751 139.402038 63.517720999999995 123.23864699999999 63.517720999999995 C 107.18456999999998 63.517720999999995 91.59887599999999 67.62557 76.914672 75.84486899999999 C 73.92871 77.51552299999999 71.958373 80.73030599999998 71.64453 84.44380699999999 C 69.644103 108.097005 72.57238600000001 127.24678599999999 80.597594 142.98653199999998 C 81.763549 145.273824 83.705077 147.06233799999998 86.064147 148.02058999999997 C 113.578856 159.20400099999998 138.366759 159.23842399999998 164.069457 148.13606899999996 L 164.070678 148.13606899999996 C 166.38439899999997 147.13606899999996 168.27062899999999 145.31435299999995 169.381957 143.00612499999997 C 177.267211 126.62764599999997 180.20465 107.57613199999997 178.361388 84.76198399999997 C 178.050658 80.90840699999997 175.93109 77.63954699999996 172.691588 76.01808799999998 Z M 124.936951 41.574422 C 114.21649199999999 41.574422 103.91613799999999 45.116109 95.335205 51.269611999999995 C 90.307495 55.784749 86.123535 60.849751 84.327698 65.25465799999999 C 111.009949 55.63100099999999 139.746399 55.494159999999994 167.066406 67.53603 C 164.014892 61.629718999999994 159.801269 56.25429199999999 154.675171 51.295918 C 146.12359600000002 45.124409 135.782044 41.574421 124.93695100000001 41.574421 Z M 67.877686 85.438863 L 68.420777 85.438863 C 68.453614 85.0165 68.476014 84.60353599999999 68.511902 84.178487 C 68.51989800000001 84.08369900000001 68.53967300000001 83.99269600000001 68.549439 83.898397 C 68.314942 84.407308 68.099732 84.92452 67.87768600000001 85.438863 Z M 63.831238 88.912801 C 62.150574 95.68984 61.515198 102.558614 61.909607 109.445943 C 64.591675 117.542745 67.290772 118.401387 68.833313 114.061238 C 67.857422 106.190449 67.643005 97.722737 68.193359 88.583516 L 64.241394 88.583516 C 64.047974 88.583516 63.879761 88.718709 63.831238 88.912801 Z M 64.240295 129.304525 C 66.710815 128.99934900000002 69.178955 128.70223000000001 71.623718 128.431295 C 71.357483 127.547994 71.119629 126.655538 70.90246599999999 125.756673 L 64.24688699999999 125.756673 C 63.957824999999985 125.756673 63.679808999999985 125.71077500000001 63.40887399999999 125.64516200000001 C 63.64922999999999 126.87032100000002 63.92822199999999 128.09004700000003 64.24029499999999 129.304525 Z M 34.796204 156.429097 L 34.796204 158.261494 C 36.206543 155.56258 37.770325 153.132771 39.496521 150.995808 C 40.294739 148.71217800000002 42.546997000000005 147.22334700000002 44.986450000000005 147.43581 C 46.40911800000001 147.555012 47.700439 148.22206500000001 48.622009000000006 149.312885 C 49.543701000000006 150.404926 49.985229000000004 151.789325 49.865478 153.213093 C 49.732177 154.80385199999998 48.878051000000006 156.25832 47.561584 157.16493599999998 C 42.781982000000006 163.375263 40.371582000000004 170.27547099999998 38.572753000000006 178.19807799999998 C 39.489135000000005 177.51973299999997 40.560546 177.03462599999997 41.65722600000001 176.82698399999998 C 43.08666900000001 176.55513299999998 44.33221400000001 176.84382999999997 45.22595200000001 177.54842 C 46.82128900000001 176.62153999999998 48.43499700000001 175.757038 50.05865500000001 174.95747799999998 L 50.94824200000001 161.09859099999997 C 51.627258000000005 150.54481899999996 59.310669000000004 141.77724099999998 68.94317600000001 140.31801199999998 C 71.125854 139.98451599999999 73.29791200000001 139.68959399999997 75.470825 139.39821199999997 C 74.379761 136.84096099999996 73.39386 134.21266499999996 72.54003900000001 131.49104599999998 C 66.58374 132.14381699999998 60.514770000000006 132.90370499999997 54.47113 133.76845099999997 C 43.254272 135.37404199999997 34.796203000000006 145.11653399999997 34.796203000000006 156.42909599999996 Z M 29.694641 188.961629 C 30.658752 188.0967 31.629028 187.258626 32.605041 186.444966 C 34.306213 174.91768299999998 37.833984 163.513692 43.365539 156.331074 C 43.566649999999996 156.067036 43.83081 155.853108 44.094787 155.651814 C 45.213989 154.771321 45.855346 153.274434 45.415222 151.613972 C 45.318115 151.255024 45.145752 150.92335899999998 44.943909 150.60994399999998 L 44.723023 150.569539 L 44.537659 150.560872 C 43.558899 150.560872 42.68512 151.215657 42.419861 152.175008 L 42.331421 152.496907 L 42.119568 152.75490299999998 C 35.669495 160.60677099999998 31.497009 172.778279 29.694641 188.961629 Z M 35.471863 205.815755 C 37.258667 207.627034 39.106262 209.37788899999998 41.001526 211.076314 C 40.700072999999996 209.579793 40.411926 208.129354 40.141846 206.749959 C 38.151123 196.57985399999998 37.106018 190.79817699999998 36.580445 187.46285 L 29.352845 193.55031300000002 C 28.734254 194.14034 28.123413999999997 194.75221700000003 27.512147 195.36275200000003 C 29.905701999999998 197.23421200000004 32.181642 199.41176300000004 34.279176 201.89400200000003 C 35.219178 203.00600200000002 35.621705 204.43221000000003 35.471864 205.81575500000002 Z" stroke-linecap="round" />
</g>
</g>
</g>
</g>
</g>
</svg>