<svg xmlns="http://www.w3.org/2000/svg" width="400" height="260" viewBox="0 0 400 260">
  <defs>
    <linearGradient id="bg" x1="0" y1="0" x2="1" y2="1"><stop offset="0%" stop-color="#0d1117"/><stop offset="100%" stop-color="#1a0533"/></linearGradient>
    <linearGradient id="accent" x1="0" y1="0" x2="1" y2="1"><stop offset="0%" stop-color="#22d3ee"/><stop offset="50%" stop-color="#a78bfa"/><stop offset="100%" stop-color="#ec4899"/></linearGradient>
  </defs>
  <rect width="400" height="260" rx="16" fill="url(#bg)"/>
  <rect x="1" y="1" width="398" height="258" rx="15" fill="none" stroke="url(#accent)" stroke-opacity="0.3" stroke-width="1"/>
  <g transform="translate(130,40)">
    <rect x="0" y="15" width="140" height="90" rx="10" fill="#22d3ee" opacity="0.04" stroke="#22d3ee" stroke-opacity="0.2" stroke-width="1"/>
    <rect x="10" y="30" width="100" height="6" rx="3" fill="#a78bfa" opacity="0.15"/>
    <rect x="10" y="42" width="80" height="6" rx="3" fill="#a78bfa" opacity="0.1"/>
    <rect x="10" y="54" width="90" height="6" rx="3" fill="#a78bfa" opacity="0.08"/>
    <rect x="10" y="72" width="120" height="22" rx="6" fill="#22d3ee" opacity="0.06" stroke="#22d3ee" stroke-opacity="0.15" stroke-width="1"/>
    <text x="70" y="87" text-anchor="middle" fill="#22d3ee" font-family="system-ui" font-size="9" opacity="0.5">Ask me anything...</text>
    <circle cx="125" cy="5" r="10" fill="#a78bfa" opacity="0.2"/>
    <circle cx="125" cy="5" r="4" fill="#a78bfa" opacity="0.4"/>
  </g>
  <text x="200" y="185" text-anchor="middle" fill="white" font-family="system-ui" font-size="16" font-weight="600" opacity="0.9">Agentic AI</text>
  <text x="200" y="207" text-anchor="middle" fill="#a78bfa" font-family="system-ui" font-size="11" opacity="0.6">Claude-Powered • Streaming</text>
  <rect x="138" y="220" width="124" height="24" rx="12" fill="#fbbf24" fill-opacity="0.08" stroke="#fbbf24" stroke-opacity="0.4" stroke-width="1"/>
  <circle cx="160" cy="232" r="3" fill="#fbbf24">
    <animate attributeName="opacity" values="1;0.2;1" dur="1.4s" repeatCount="indefinite"/>
  </circle>
  <text x="207" y="236" text-anchor="middle" fill="#fbbf24" font-family="system-ui" font-size="9" font-weight="600" letter-spacing="1.5" opacity="0.9">COMING SOON</text>
</svg>
