<svg xmlns="http://www.w3.org/2000/svg" width="400" height="260" viewBox="0 0 400 260">
  <defs>
    <linearGradient id="bg" x1="0" y1="0" x2="1" y2="1"><stop offset="0%" stop-color="#1a0533"/><stop offset="100%" stop-color="#0d1117"/></linearGradient>
    <linearGradient id="accent" x1="0" y1="0" x2="1" y2="1"><stop offset="0%" stop-color="#10b981"/><stop offset="100%" stop-color="#06b6d4"/></linearGradient>
  </defs>
  <rect width="400" height="260" rx="16" fill="url(#bg)"/>
  <rect x="1" y="1" width="398" height="258" rx="15" fill="none" stroke="url(#accent)" stroke-opacity="0.3" stroke-width="1"/>
  <g transform="translate(140,40)">
    <rect x="0" y="20" width="120" height="80" rx="6" fill="#10b981" opacity="0.04" stroke="#10b981" stroke-opacity="0.2" stroke-width="1"/>
    <rect x="8" y="30" width="25" height="25" rx="4" fill="#10b981" opacity="0.12"/>
    <rect x="38" y="30" width="25" height="25" rx="4" fill="#06b6d4" opacity="0.12"/>
    <rect x="68" y="30" width="25" height="25" rx="4" fill="#10b981" opacity="0.08"/>
    <rect x="8" y="60" width="25" height="25" rx="4" fill="#06b6d4" opacity="0.08"/>
    <rect x="38" y="60" width="25" height="25" rx="4" fill="#10b981" opacity="0.15"/>
    <rect x="68" y="60" width="25" height="25" rx="4" fill="#06b6d4" opacity="0.1"/>
    <rect x="100" y="30" width="12" height="60" rx="3" fill="#10b981" opacity="0.06"/>
    <circle cx="60" cy="10" r="6" fill="#10b981" opacity="0.3"/>
    <path d="M57 10 L63 10 M60 7 L60 13" stroke="#0d1117" stroke-width="1.5" stroke-linecap="round"/>
  </g>
  <text x="200" y="185" text-anchor="middle" fill="white" font-family="system-ui" font-size="16" font-weight="600" opacity="0.9">Game Builder</text>
  <text x="200" y="207" text-anchor="middle" fill="#6ee7b7" font-family="system-ui" font-size="11" opacity="0.6">Drag & Drop • Visual</text>
</svg>
