<svg xmlns="http://www.w3.org/2000/svg" width="400" height="260" viewBox="0 0 400 260">
  <defs>
    <linearGradient id="bg" x1="0" y1="0" x2="1" y2="1"><stop offset="0%" stop-color="#1a0533"/><stop offset="100%" stop-color="#0d1117"/></linearGradient>
    <linearGradient id="accent" x1="0" y1="0" x2="1" y2="1"><stop offset="0%" stop-color="#8b5cf6"/><stop offset="100%" stop-color="#c084fc"/></linearGradient>
  </defs>
  <rect width="400" height="260" rx="16" fill="url(#bg)"/>
  <rect x="1" y="1" width="398" height="258" rx="15" fill="none" stroke="url(#accent)" stroke-opacity="0.3" stroke-width="1"/>
  <g transform="translate(120,35)">
    <rect x="20" y="10" width="120" height="90" rx="8" fill="#8b5cf6" opacity="0.04" stroke="#8b5cf6" stroke-opacity="0.2" stroke-width="1"/>
    <rect x="30" y="20" width="40" height="35" rx="4" fill="none" stroke="#c084fc" stroke-opacity="0.25" stroke-width="1" stroke-dasharray="3,3"/>
    <rect x="80" y="20" width="50" height="16" rx="3" fill="#8b5cf6" opacity="0.08"/>
    <rect x="80" y="42" width="50" height="16" rx="3" fill="#c084fc" opacity="0.06"/>
    <rect x="30" y="65" width="100" height="25" rx="5" fill="#8b5cf6" opacity="0.06"/>
    <rect x="36" y="70" width="12" height="15" rx="2" fill="#8b5cf6" opacity="0.15"/>
    <rect x="52" y="70" width="12" height="15" rx="2" fill="#c084fc" opacity="0.12"/>
    <rect x="68" y="70" width="12" height="15" rx="2" fill="#8b5cf6" opacity="0.1"/>
    <rect x="84" y="70" width="12" height="15" rx="2" fill="#c084fc" opacity="0.08"/>
    <rect x="100" y="70" width="12" height="15" rx="2" fill="#8b5cf6" opacity="0.06"/>
    <circle cx="50" cy="37" r="8" fill="#c084fc" opacity="0.15"/>
    <path d="M47 37 L53 37 M50 34 L50 40" stroke="#c084fc" stroke-width="1" stroke-linecap="round" opacity="0.5"/>
  </g>
  <text x="200" y="185" text-anchor="middle" fill="white" font-family="system-ui" font-size="16" font-weight="600" opacity="0.9">Sprite Editor</text>
  <text x="200" y="207" text-anchor="middle" fill="#c084fc" font-family="system-ui" font-size="11" opacity="0.6">Pixel Art • Animation</text>
</svg>
