<svg xmlns="http://www.w3.org/2000/svg" width="400" height="260" viewBox="0 0 400 260">
  <defs>
    <linearGradient id="bg" x1="0" y1="0" x2="1" y2="1"><stop offset="0%" stop-color="#1a0533"/><stop offset="100%" stop-color="#0d1117"/></linearGradient>
    <linearGradient id="accent" x1="0" y1="0" x2="1" y2="1"><stop offset="0%" stop-color="#f43f5e"/><stop offset="100%" stop-color="#fb923c"/></linearGradient>
  </defs>
  <rect width="400" height="260" rx="16" fill="url(#bg)"/>
  <rect x="1" y="1" width="398" height="258" rx="15" fill="none" stroke="url(#accent)" stroke-opacity="0.3" stroke-width="1"/>
  <g transform="translate(145,50)">
    <rect x="0" y="0" width="110" height="75" rx="8" fill="none" stroke="#f43f5e" stroke-opacity="0.4" stroke-width="1.5"/>
    <rect x="5" y="5" width="100" height="65" rx="5" fill="#f43f5e" opacity="0.06"/>
    <polygon points="40,20 40,55 70,37.5" fill="#f43f5e" opacity="0.3"/>
    <circle cx="40" cy="37" r="18" fill="none" stroke="#fb923c" stroke-opacity="0.2" stroke-width="1"/>
    <rect x="10" y="82" width="90" height="4" rx="2" fill="#f43f5e" opacity="0.15"/>
    <rect x="10" y="82" width="50" height="4" rx="2" fill="#f43f5e" opacity="0.3"/>
    <rect x="10" y="90" width="22" height="10" rx="3" fill="#f43f5e" opacity="0.15"/>
    <text x="21" y="98" text-anchor="middle" fill="#fda4af" font-family="system-ui" font-size="6" opacity="0.6">720p</text>
    <rect x="36" y="90" width="22" height="10" rx="3" fill="#fb923c" opacity="0.2"/>
    <text x="47" y="98" text-anchor="middle" fill="#fdba74" font-family="system-ui" font-size="6" opacity="0.7">1080p</text>
  </g>
  <text x="200" y="200" text-anchor="middle" fill="white" font-family="system-ui" font-size="16" font-weight="600" opacity="0.9">Video Generation</text>
  <text x="200" y="222" text-anchor="middle" fill="#fda4af" font-family="system-ui" font-size="11" opacity="0.6">Text-to-Video • HD</text>
</svg>
